# xmcd CD database file
#
# Track frame offsets:
#	225
#	18826
#	42902
#	65328
#	81004
#	89030
#	125556
#	142957
#	169733
#	187659
#	200935
#	214961
#
# Disc length: 3015 seconds
#
# Revision: 0
# Processed by: cddbd v1.5.1PL0 Copyright (c) Steve Scherf et al.
# Submitted via: CDex 1.51
#
DISCID=a90bc40c
DTITLE=Project H/L - High and Low -Original StreamZ- Disｋ1
DYEAR=2004
DGENRE=Soundtrack
TTITLE0=Anthem Of The Dark
TTITLE1=Hope and Love
TTITLE2=Fanaticism AREA in "My Dream"
TTITLE3=vanitas
TTITLE4=Backslide
TTITLE5=starlit night
TTITLE6=Acid No.25
TTITLE7=薄紅ノ雪舞降ル夢ヲ
TTITLE8=DOKIDOKI★恋のLogic!
TTITLE9=sanction
TTITLE10=Minimalize
TTITLE11=Mana -
EXTD=YEAR: 2004
EXTT0=
EXTT1=
EXTT2=
EXTT3=
EXTT4=
EXTT5=
EXTT6=
EXTT7=
EXTT8=
EXTT9=
EXTT10=
EXTT11=
PLAYORDER=
